# AST/ASF file generated using VICON BodyLanguage
# -----------------------------------------------
:version 1.10
:name VICON
:units
  mass 1.0
  length 0.45
  angle deg
:documentation
   .ast/.asf automatically generated from VICON data using
   VICON BodyBuilder and BodyLanguage model FoxedUp or BRILLIANT.MOD
:root
   order TX TY TZ RX RY RZ
   axis XYZ
   position 0 0 0  
   orientation 0 0 0 
:bonedata
  begin
     id 1 
     name lhipjoint
     direction 0.567149 -0.783011 0.255413 
     length 2.28399 
     axis 0 0 0  XYZ
  end
  begin
     id 2 
     name lfemur
     direction 0.34202 -0.939693 0  
     length 7.34031  
     axis 0 0 20  XYZ
    dof rx ry rz
    limits (-160.0 20.0)
           (-70.0 70.0)
           (-60.0 70.0)
  end
  begin
     id 3 
     name ltibia
     direction 0.34202 -0.939693 0   
     length 6.9833   
     axis 0 0 20   XYZ
    dof rx
    limits (-10.0 170.0)
  end
  begin
     id 4 
     name lfoot
     direction 0.136498 -0.375025 0.91691   
     length 2.33665   
     axis -90 7.62852e-016 20   XYZ
    dof rx rz
    limits (-45.0 90.0)
           (-70.0 20.0)
  end
  begin
     id 5 
     name ltoes
     direction 1.5367e-011 -4.21617e-011 1   
     length 1.15039   
     axis -90 7.62852e-016 20   XYZ
    dof rx
    limits (-90.0 20.0)
  end
  begin
     id 6 
     name rhipjoint
     direction -0.602854 -0.758518 0.247423   
     length 2.35775  
     axis 0 0 0  XYZ 
  end
  begin
     id 7 
     name rfemur
     direction -0.34202 -0.939693 0   
     length 7.43932   
     axis 0 0 -20   XYZ
    dof rx ry rz
    limits (-160.0 20.0)
           (-70.0 70.0)
           (-70.0 60.0)
  end
  begin
     id 8 
     name rtibia
     direction -0.34202 -0.939693 0   
     length 7.11893   
     axis 0 0 -20   XYZ
    dof rx
    limits (-10.0 170.0)
 end
 begin
     id 9 
     name rfoot
     direction -0.131771 -0.362037 0.922803   
     length 2.53019  
     axis -90 -7.62852e-016 -20   XYZ
    dof rx rz
    limits (-45.0 90.0)
           (-20.0 70.0)
  end
  begin
     id 10 
     name rtoes
     direction -1.53733e-011 -4.21932e-011 1   
     length 1.24596   
     axis -90 -7.62852e-016 -20   XYZ
    dof rx
    limits (-90.0 20.0)
  end
  begin
     id 11 
     name lowerback
     direction 0.0235427 0.999023 -0.0374125   
     length 2.21768   
     axis 0 0 0   XYZ
    dof rx ry rz
    limits (-20.0 45.0)
           (-30.0 30.0)
           (-30.0 30.0)
  end
  begin
     id 12 
     name upperback
     direction 0.0302156 0.996818 -0.073759   
     length 2.20352   
     axis 0 0 0   XYZ
    dof rx ry rz
    limits (-20.0 45.0)
           (-30.0 30.0)
           (-30.0 30.0)
  end
  begin
     id 13 
     name thorax
     direction 0.0187169 0.998235 -0.0563532   
     length 2.22103   
     axis 0 0 0   XYZ
    dof rx ry rz
    limits (-20.0 45.0)
           (-30.0 30.0)
           (-30.0 30.0)
  end
  begin
     id 14 
     name lowerneck
     direction -0.119528 0.987423 0.103481   
     length 1.72948   
     axis 0 0 0   XYZ
    dof rx ry rz
    limits (-20.0 45.0)
           (-30.0 30.0)
           (-30.0 30.0)
  end
  begin
     id 15 
     name upperneck
     direction 0.248049 0.963095 -0.104496   
     length 1.74979   
     axis 0 0 0   XYZ
    dof rx ry rz
    limits (-20.0 45.0)
           (-30.0 30.0)
           (-30.0 30.0)
  end
  begin
     id 16
     name head
     direction 0.0903589 0.994284 -0.056876  
     length 1.78268  
     axis 0 0 0   XYZ
    dof rx ry rz
    limits (-20.0 45.0)
           (-30.0 30.0)
           (-30.0 30.0)
  end
  begin
     id 17 
     name lclavicle
     direction 0.946008 0.242039 -0.215608  
     length 3.80783  
     axis 0 0 0   XYZ
    dof ry rz
    limits (-20.0 10.0)
           (0.0 20.0)
  end
  begin
     id 18 
     name lhumerus
     direction 1 -4.48991e-011 -2.25695e-027   
     length 4.83125   
     axis 180 -30 -90   XYZ
    dof rx ry rz
    limits (-60.0 90.0)
           (-90.0 90.0)
           (-90.0 90.0)
  end
  begin
     id 19
     name lradius
     direction 0.999991 0.00366712 -0.00211721   
     length 3.00391   
     axis 180 -30 -90   XYZ
    dof rx
    limits (-10.0 170.0)
  end
  begin
     id 20
     name lwrist
     direction 0.999991 0.00393016 -0.00141978   
     length 1.50195   
     axis -1.00488e-014 90 90   XYZ
    dof ry
    limits (-180.0 0.0)
 end
  begin
     id 21 
     name lhand
     direction 1 -4.49123e-011 2.72098e-026   
     length 1.2717   
     axis -1.73687e-014 90 90   XYZ
    dof rx rz
    limits (-90.0 90.0)
           (-45.0 45.0)
  end
  begin
     id 22 
     name lfingers
     direction 1 -4.48678e-011 5.4479e-026   
     length 1.02528   
     axis -3.47372e-014 90 90   XYZ
    dof rx
    limits (0.0 90.0)
  end
  begin
     id 23
     name lthumb
     direction 0.707107 -6.34851e-011 0.707107   
     length 1.4721   
     axis -90 45 -1.62303e-014   XYZ
    dof rx rz
    limits (-45.0 45.0)
           (-45.0 45.0)
  end
  begin
     id 24 
     name rclavicle
     direction -0.981723 0.189447 -0.0181673   
     length 3.74989  
     axis 0 0 0   XYZ 
    dof ry rz
    limits (-10.0 20.0)
           (-20.0 0.0)
  end
  begin
     id 25 
     name rhumerus
     direction -1 -4.48985e-011 2.38206e-027  
     length 4.61118   
     axis 180 30 90   XYZ
    dof rx ry rz
    limits (-90.0 60.0)
           (-90.0 90.0)
           (-90.0 90.0)
  end
  begin
     id 26 
     name rradius
     direction -1 -4.48977e-011 7.41019e-027   
     length 2.91491   
     axis 180 30 90   XYZ
    dof rx
    limits (-10.0 170.0)
  end
  begin
     id 27 
     name rwrist
     direction -1 -4.48549e-011 1.3624e-026   
     length 1.45745   
     axis -1.00488e-014 -90 -90   XYZ
    dof ry
    limits (-180.0 0.0)
  end
  begin
     id 28
     name rhand
     direction -1 -4.49107e-011 2.72109e-026   
     length 1.30769   
     axis -1.73687e-014 -90 -90   XYZ
    dof rx rz
    limits (-90.0 90.0)
           (-45.0 45.0)
  end
  begin
     id 29
     name rfingers
     direction -1 -4.48919e-011 5.44468e-026   
     length 1.05429   
     axis -3.47372e-014 -90 -90   XYZ
    dof rx
    limits (0.0 90.0)
  end
  begin
     id 30
     name rthumb
     direction -0.707107 -6.35315e-011 0.707107   
     length 1.51376   
     axis -90 -45 1.62303e-014   XYZ
    dof rx rz
    limits (-45.0 45.0)
           (-45.0 45.0)
  end
:hierarchy
  begin
    root lhipjoint rhipjoint lowerback
    lhipjoint lfemur
    lfemur ltibia
    ltibia lfoot
    lfoot ltoes
    rhipjoint rfemur
    rfemur rtibia
    rtibia rfoot
    rfoot rtoes
    lowerback upperback
    upperback thorax
    thorax lowerneck lclavicle rclavicle
    lowerneck upperneck
    upperneck head
    lclavicle lhumerus
    lhumerus lradius
    lradius lwrist
    lwrist lhand lthumb
    lhand lfingers
    rclavicle rhumerus
    rhumerus rradius
    rradius rwrist
    rwrist rhand rthumb
    rhand rfingers
  end

#!OML:ASF X:\für Bonn\!DataBase\2005_08_11_Bastian_Final\c3d\Bastian.ASF
:FULLY-SPECIFIED
:DEGREES
1
root 0.0998452 17.3334 5.94512 176.968 -9.79138 -180.038
lowerback 10.728 -2.3523 -1.0576
upperback 5.20393 -3.74108 -0.300012
thorax -0.543977 -2.10046 0.692882
lowerneck -10.4667 -5.55802 -3.6241
upperneck -6.29038 -7.74705 10.1351
head 0.386663 -4.11626 3.62382
rclavicle -9.93923e-016 1.59028e-015
rhumerus 70.7519 20.2469 7.52372
rradius 39.7098
rwrist -55.7052
rhand -43.7614 -7.43615
rfingers 7.12502
rthumb -16.5915 -36.7469
lclavicle -9.93923e-016 1.59028e-015
lhumerus 70.3396 -20.8519 -6.67106
lradius 30.6315
lwrist -0.852625
lhand -41.611 12.9023
lfingers 7.12502
lthumb -14.5204 42.3742
rfemur -8.46784 2.93217 25.7684
rtibia 40.3518
rfoot -23.9639 -18.4797
rtoes 5.28679
lfemur -6.4721 3.44819 -18.5255
ltibia 31.3039
lfoot -14.2675 -10.4871
ltoes -11.6739
2
root 0.0996433 17.3244 5.9414 176.638 -9.88362 -180.11
lowerback 11.0319 -2.35303 -1.14965
upperback 5.26915 -3.77225 -0.317491
thorax -0.636024 -2.12442 0.744218
lowerneck -10.597 -5.58759 -3.68174
upperneck -6.11328 -7.77871 10.1235
head 0.471285 -4.11858 3.62168
rclavicle -7.42461e-014 2.50469e-014
rhumerus 70.7295 20.3476 7.44577
rradius 39.7278
rwrist -55.8047
rhand -43.7882 -7.42624
rfingers 7.12502
rthumb -16.6173 -36.7349
lclavicle -7.42461e-014 2.50469e-014
lhumerus 70.2989 -21.0062 -6.4697
lradius 30.6468
lwrist -0.798467
lhand -41.6821 12.9321
lfingers 7.12502
lthumb -14.5889 42.399
rfemur -8.21133 1.93499 25.513
rtibia 40.4929
rfoot -23.908 -17.6718
rtoes 5.13146
lfemur -6.17227 2.88916 -18.6861
ltibia 31.4746
lfoot -14.5057 -9.9378
ltoes -12.5788
3
root 0.0989218 17.3149 5.93805 176.351 -9.96655 -180.187
lowerback 11.3101 -2.34233 -1.2263
upperback 5.32208 -3.78494 -0.342841
thorax -0.72852 -2.13776 0.776002
lowerneck -10.698 -5.62126 -3.71559
upperneck -5.96334 -7.81735 10.0966
head 0.540688 -4.12658 3.61082
rclavicle 1.49585e-014 1.94809e-014
rhumerus 70.6832 20.4642 7.38072
rradius 39.7357
rwrist -55.873
rhand -43.8519 -7.41568
rfingers 7.12502
rthumb -16.6786 -36.7191
lclavicle 1.49585e-014 1.94809e-014
lhumerus 70.3202 -21.1635 -6.42538
lradius 30.7089
lwrist -0.610645
lhand -41.7572 13.0238
lfingers 7.12502
lthumb -14.6612 42.4854
rfemur -8.03278 0.952777 25.2402
rtibia 40.6757
rfoot -23.8378 -16.9002
rtoes 4.7103
lfemur -5.96141 2.38922 -18.8517
ltibia 31.7142
lfoot -14.7282 -9.46831
ltoes -13.154
4
root 0.0983253 17.3035 5.93647 176.104 -10.0634 -180.266
lowerback 11.5744 -2.34614 -1.30495
upperback 5.36249 -3.81549 -0.367354
thorax -0.825637 -2.15905 0.811621
lowerneck -10.7951 -5.65161 -3.76314
upperneck -5.79535 -7.84949 10.0776
head 0.616021 -4.13007 3.60555
rclavicle -1.90833e-014 1.78906e-015
rhumerus 70.6877 20.5882 7.42616
rradius 39.7922
rwrist -56.0136
rhand -43.9475 -7.39362
rfingers 7.12502
rthumb -16.7706 -36.6893
lclavicle -1.90833e-014 1.78906e-015
lhumerus 70.3766 -21.3141 -6.68577
lradius 30.8458
lwrist -0.141726
lhand -41.8703 13.145
lfingers 7.12502
lthumb -14.7703 42.5988
rfemur -7.9287 0.0169456 24.9588
rtibia 40.9018
rfoot -23.8303 -16.1623
rtoes 4.51869
lfemur -5.8605 2.01522 -19.0117
ltibia 32.0428
lfoot -14.9515 -9.11326
ltoes -14.0581
5
root 0.0980908 17.2904 5.93588 175.88 -10.1639 -180.328
lowerback 11.8143 -2.35538 -1.38586
upperback 5.40674 -3.85312 -0.372449
thorax -0.903655 -2.18422 0.868012
lowerneck -10.852 -5.67811 -3.83813
upperneck -5.67552 -7.87353 10.0845
head 0.670839 -4.13222 3.61694
rclavicle -6.21202e-015 -1.39149e-015
rhumerus 70.7202 20.6861 7.50018
rradius 39.8417
rwrist -56.0544
rhand -44.0678 -7.47565
rfingers 7.12502
rthumb -16.8864 -36.7615
lclavicle -6.21202e-015 -1.39149e-015
lhumerus 70.3961 -21.4311 -6.90399
lradius 30.9966
lwrist 0.314651
lhand -41.9707 13.2816
lfingers 7.12502
lthumb -14.8669 42.7281
rfemur -7.88018 -0.892882 24.6985
rtibia 41.1737
rfoot -23.815 -15.4608
rtoes 4.33187
lfemur -5.84429 1.65941 -19.1442
ltibia 32.4753
lfoot -15.1549 -8.80482
ltoes -14.4985
6
root 0.0979133 17.2755 5.93646 175.645 -10.2717 -180.409
lowerback 12.0976 -2.36366 -1.47274
upperback 5.43787 -3.89125 -0.390202
thorax -1.01898 -2.20892 0.918016
lowerneck -10.8604 -5.69666 -3.90436
upperneck -5.57152 -7.8866 10.0927
head 0.711066 -4.1302 3.62948
rclavicle -6.77359e-014 3.57812e-015
rhumerus 70.7716 20.803 7.67051
rradius 39.9173
rwrist -56.1638
rhand -44.2056 -7.55396
rfingers 7.12502
rthumb -17.0191 -36.8284
lclavicle -6.77359e-014 3.57812e-015
lhumerus 70.453 -21.5911 -7.18908
lradius 31.1541
lwrist 0.873319
lhand -42.0905 13.4176
lfingers 7.12502
lthumb -14.9824 42.8556
rfemur -7.84493 -1.80363 24.4113
rtibia 41.4949
rfoot -23.8296 -14.7666
rtoes 3.91416
lfemur -5.89154 1.4386 -19.2816
ltibia 33.0302
lfoot -15.4021 -8.62515
ltoes -15.1748
7
root 0.0972949 17.2566 5.93897 175.42 -10.4084 -180.471
lowerback 12.3753 -2.37998 -1.52811
upperback 5.47583 -3.93741 -0.399837
thorax -1.1251 -2.23757 0.959544
lowerneck -10.9051 -5.73014 -3.98201
upperneck -5.44533 -7.91753 10.0789
head 0.76554 -4.13513 3.63412
rclavicle -7.25564e-015 4.17448e-015
rhumerus 70.8208 20.8969 7.94968
rradius 40.0348
rwrist -56.3033
rhand -44.3797 -7.68047
rfingers 7.12502
rthumb -17.1867 -36.9404
lclavicle -7.25564e-015 4.17448e-015
lhumerus 70.4987 -21.7382 -7.40762
lradius 31.285
lwrist 1.32322
lhand -42.2073 13.571
lfingers 7.12502
lthumb -15.0948 43.0006
rfemur -7.85071 -2.70842 24.1355
rtibia 41.8732
rfoot -23.8971 -14.0667
rtoes 3.82278
lfemur -6.03161 1.31525 -19.3739
ltibia 33.7135
lfoot -15.6342 -8.6034
ltoes -15.5519
8
root 0.0968544 17.2356 5.94202 175.184 -10.5247 -180.509
lowerback 12.6878 -2.39702 -1.56782
upperback 5.5074 -3.98391 -0.40137
thorax -1.25675 -2.26599 1.00344
lowerneck -10.9455 -5.75855 -4.04539
upperneck -5.33169 -7.94404 10.0646
head 0.814176 -4.13924 3.63652
rclavicle 1.32689e-014 -5.1684e-015
rhumerus 70.903 20.977 8.28637
rradius 40.1656
rwrist -56.4484
rhand -44.5175 -7.79879
rfingers 7.12502
rthumb -17.3193 -37.0471
lclavicle 1.32689e-014 -5.1684e-015
lhumerus 70.4851 -21.9016 -7.49567
lradius 31.4022
lwrist 1.73729
lhand -42.3525 13.6384
lfingers 7.12502
lthumb -15.2347 43.0574
rfemur -7.87954 -3.57672 23.8916
rtibia 42.3117
rfoot -24.0147 -13.4133
rtoes 3.5704
lfemur -6.2472 1.29566 -19.4243
ltibia 34.5357
lfoot -15.8834 -8.67458
ltoes -15.925
9
root 0.0971763 17.2093 5.94655 174.95 -10.6604 -180.547
lowerback 13.0396 -2.42219 -1.61379
upperback 5.53857 -4.04426 -0.405598
thorax -1.40899 -2.30157 1.0527
lowerneck -11.0665 -5.78094 -4.06925
upperneck -5.16415 -7.96838 10.0205
head 0.890855 -4.13985 3.61828
rclavicle 1.54555e-014 -9.93923e-015
rhumerus 71.0056 21.0201 8.65224
rradius 40.2991
rwrist -56.5876
rhand -44.6645 -7.97303
rfingers 7.12502
rthumb -17.4608 -37.2088
lclavicle 1.54555e-014 -9.93923e-015
lhumerus 70.4778 -22.0536 -7.6258
lradius 31.5147
lwrist 2.14131
lhand -42.4793 13.7739
lfingers 7.12502
lthumb -15.3568 43.1836
rfemur -7.94215 -4.42572 23.6559
rtibia 42.8182
rfoot -24.1299 -12.8259
rtoes 3.31553
lfemur -6.53805 1.24255 -19.475
ltibia 35.4899
lfoot -16.1516 -8.75693
ltoes -16.2368
10
root 0.0973142 17.178 5.95159 174.712 -10.8149 -180.563
lowerback 13.3998 -2.44678 -1.62027
upperback 5.56875 -4.09951 -0.41186
thorax -1.56928 -2.33384 1.07828
lowerneck -11.1303 -5.81034 -4.08814
upperneck -5.05001 -8.00206 9.98566
head 0.941041 -4.14862 3.60417
rclavicle -8.44835e-016 -9.34288e-015
rhumerus 71.0768 21.0669 9.05323
rradius 40.4515
rwrist -56.7657
rhand -44.8135 -8.08755
rfingers 7.12502
rthumb -17.6042 -37.3106
lclavicle -8.44835e-016 -9.34288e-015
lhumerus 70.4555 -22.1942 -7.62508
lradius 31.609
lwrist 2.4413
lhand -42.6023 13.8628
lfingers 7.12502
lthumb -15.4753 43.2634
rfemur -8.02986 -5.2638 23.4381
rtibia 43.3906
rfoot -24.3274 -12.2162
rtoes 3.19119
lfemur -6.89356 1.16604 -19.5007
ltibia 36.572
lfoot -16.4673 -8.84459
ltoes -16.5331
11
root 0.0987747 17.1408 5.95613 174.464 -11.0162 -180.554
lowerback 13.7556 -2.49297 -1.62275
upperback 5.60609 -4.18298 -0.397001
thorax -1.71716 -2.3808 1.12755
lowerneck -11.2346 -5.84944 -4.15248
upperneck -4.90042 -8.04382 9.96906
head 1.01387 -4.15834 3.60284
rclavicle -4.29872e-014 7.7526e-015
rhumerus 71.1873 21.091 9.50808
rradius 40.6148
rwrist -56.9757
rhand -44.9958 -8.19358
rfingers 7.12502
rthumb -17.7796 -37.4008
lclavicle -4.29872e-014 7.7526e-015
lhumerus 70.4297 -22.3422 -7.65724
lradius 31.6905
lwrist 2.75947
lhand -42.7242 13.9797
lfingers 7.12502
lthumb -15.5928 43.3712
rfemur -8.13805 -6.09923 23.2529
rtibia 44.0337
rfoot -24.5523 -11.6829
rtoes 2.97084
lfemur -7.31007 1.0839 -19.4883
ltibia 37.767
lfoot -16.7758 -9.00743
ltoes -16.4837
12
root 0.101595 17.0993 5.95898 174.226 -11.266 -180.528
lowerback 14.0802 -2.55945 -1.62549
upperback 5.64797 -4.2921 -0.378822
thorax -1.84205 -2.44061 1.18283
lowerneck -11.3555 -5.87823 -4.1655
upperneck -4.75893 -8.07722 9.9014
head 1.08093 -4.16548 3.5744
rclavicle 8.29926e-015 -4.17448e-015
rhumerus 71.3382 21.1038 9.99086
rradius 40.7535
rwrist -57.2123
rhand -45.1809 -8.28153
rfingers 7.12502
rthumb -17.9577 -37.4725
lclavicle 8.29926e-015 -4.17448e-015
lhumerus 70.3003 -22.4491 -7.35804
lradius 31.6755
lwrist 2.74986
lhand -42.8073 13.9713
lfingers 7.12502
lthumb -15.6728 43.3565
rfemur -8.28235 -6.92965 23.0924
rtibia 44.7577
rfoot -24.8821 -11.1999
rtoes 2.84133
lfemur -7.79431 0.934968 -19.4546
ltibia 39.0653
lfoot -17.0873 -9.2173
ltoes -16.155
